{"title":"The Dark Knight Rises 2012 HDTS XViD UNiQUE ","uid":7638089,"size":2627340763,"categoryP":"video","categoryS":"movies","magnet":"?xt=urn:btih:faf71d21c657819c75b05bb9a9854052d4f3b691&amp;dn=The+Dark+Knight+Rises+2012+HDTS+XViD+UNiQUE+&amp;tr=udp%3A%2F%2Ftracker.openbittorrent.com%3A80&amp;tr=udp%3A%2F%2Fopen.demonii.com%3A1337&amp;tr=udp%3A%2F%2Ftracker.coppersurfer.tk%3A6969&amp;tr=udp%3A%2F%2Fexodus.desync.com%3A6969","seeders":2,"leechers":0,"uploader":"Horrorspoke","files":-1,"time":1347706730,"description":" &lt;a href=&quot;http://www.imdb.com/title/tt1345836/&quot; rel=&quot;nofollow&quot; target=&quot;_NEW&quot;&gt;http://www.imdb.com/title/tt1345836/&lt;/a&gt;\n\n\nPlot: Eight years on, a new terrorist leader, Bane, overwhelms Gotham's finest, and the Dark Knight resurfaces to protect a city that has branded him an enemy.\n\n\nDirector:\nChristopher Nolan\n\nWriters:\nJonathan Nolan (screenplay), Christopher Nolan (screenplay)\n\nStars:\nChristian Bale, Michael Caine and Gary Oldman | See full cast and crew\n\nGenres:\nAction | Drama | Thriller\n\n\nCountry:\nUSA |UK\n\nLanguage:\nEnglish\n\n\n\nFormat : AVI\nFormat/Info : Audio Video Interleave\nFormat profile : OpenDML\nFile size : 2.43 GiB\nDuration : 2h 32mn\nOverall bit rate : 2 280 Kbps\nWriting library : VirtualDub build 32842/release\n\nVideo\nID : 0\nFormat : MPEG-4 Visual\nFormat profile : Advanced Simple@L5\nFormat settings, BVOP : 2\nFormat settings, QPel : No\nFormat settings, GMC : No warppoints\nFormat settings, Matrix : Default (H.263)\nMuxing mode : Packed bitstream\nCodec ID : XVID\nCodec ID/Hint : XviD\nDuration : 2h 32mn\nBit rate : 2 140 Kbps\nWidth : 720 pixels\nHeight : 304 pixels\nDisplay aspect ratio : 2.35:1\nFrame rate : 24.000 fps\nColor space : YUV\nChroma subsampling : 4:2:0\nBit depth : 8 bits\nScan type : Progressive\nCompression mode : Lossy\nBits/(Pixel*Frame) : 0.407\nStream size : 2.28 GiB (94%)\nWriting library : XviD 64\n\nAudio\nID : 1\nFormat : MPEG Audio\nFormat version : Version 1\nFormat profile : Layer 3\nMode : Joint stereo\nMode extension : MS Stereo\nCodec ID : 55\nCodec ID/Hint : MP3\nDuration : 2h 32mn\nBit rate mode : Constant\nBit rate : 128 Kbps\nChannel(s) : 2 channels\nSampling rate : 44.1 KHz\nCompression mode : Lossy\nDelay relative to video : 9ms\nStream size : 140 MiB (6%)\nAlignment : Split accross interleaves\nInterleave, duration : 42 ms (1.00 video frame)\nInterleave, preload duration : 500 ms\nWriting library : LAME3.99.5\n\nSource Used\n\n\nChinese 720 HDCAM...........Thanks\n\nToothfairy........................Thanks bro\n\n\nScreens:\n\n\nSEED AND HAVE FUN!!!","torrent":{"xt":"urn:btih:faf71d21c657819c75b05bb9a9854052d4f3b691","amp;dn":"The+Dark+Knight+Rises+2012+HDTS+XViD+UNiQUE+","amp;tr":["udp%3A%2F%2Ftracker.openbittorrent.com%3A80","udp%3A%2F%2Fopen.demonii.com%3A1337","udp%3A%2F%2Ftracker.coppersurfer.tk%3A6969","udp%3A%2F%2Fexodus.desync.com%3A6969"],"infoHash":"faf71d21c657819c75b05bb9a9854052d4f3b691","infoHashBuffer":{"type":"Buffer","data":[250,247,29,33,198,87,129,156,117,176,91,185,169,133,64,82,212,243,182,145]},"announce":[],"urlList":[]}}